<?xml version="1.0" encoding="UTF-8" standalone="no"?>
<!DOCTYPE svg PUBLIC "-//W3C//DTD SVG 1.1//EN" "http://www.w3.org/Graphics/SVG/1.1/DTD/svg11.dtd">
<svg width="100%" height="100%" viewBox="0 0 612 792" version="1.1" xmlns="http://www.w3.org/2000/svg">
  <path d="M247.0281,418.9017 L438.4532,500.6192" stroke="#007F00" stroke-width="0.24" fill-opacity="0" />
  <path d="M261.5162,524.6788 L398.1117,401.552" stroke="#007F00" stroke-width="0.24" fill-opacity="0" />
  <path d="M312.7119,369.6883 L168.063,478.0662" stroke="#007F00" stroke-width="0.24" fill-opacity="0" />
  <path d="M494.3071,437.4438 L312.7119,369.6883" stroke="#007F00" stroke-width="0.24" fill-opacity="0" />
  <path d="M369.5443,578.561 L494.3071,437.4438" stroke="#007F00" stroke-width="0.24" fill-opacity="0" />
  <path d="M168.063,478.0662 L369.5443,578.561" stroke="#007F00" stroke-width="0.24" fill-opacity="0" />
  <path d="M314.9312,375.6446 L181.5584,476.9988 L367.7383,568.7494 L484.0039,439.3304 z" stroke="#000000" stroke-width="0.24" fill-opacity="0" />
  <path d="M323.1682,362.7429 L334.4761,366.8773 L326.7639,372.8057 L315.3918,368.5792 L323.1682,362.7429 L334.4761,366.8773 L326.7639,372.8057 L315.3918,368.5792 z" stroke="#000000" stroke-width="0.24" fill-opacity="0" />
  <path d="M312.7119,369.6883 L168.063,478.0662 L369.5443,578.561 L494.3071,437.4438 z" stroke="#000000" stroke-width="0.24" fill-opacity="0" />
  <path d="M323.3846,361.3949 L170.4712,475.9005 L372.3191,576.0531 L503.8206,427.1873 z" stroke="#000000" stroke-width="0.24" fill-opacity="0" />
  <path d="M205.2208,459.0218 L388.742,545.3695" stroke="#007F00" stroke-width="0.24" fill-opacity="0" />
  <path d="M262.5686,415.441 L438.969,489.4602" stroke="#007F00" stroke-width="0.24" fill-opacity="0" />
  <path d="M365.64,394.7455 L236.5332,504.0908" stroke="#007F00" stroke-width="0.24" fill-opacity="0" />
  <path d="M416.299,413.8275 L292.184,531.5206" stroke="#007F00" stroke-width="0.24" fill-opacity="0" />
  <path d="M233.8864,436.545 L413.7393,516.4028" stroke="#007F00" stroke-width="0.24" fill-opacity="0" />
  <path d="M248.321,426.2683 L426.5801,503.2507" stroke="#007F00" stroke-width="0.24" fill-opacity="0" />
  <path d="M301.0029,386.2334 L472.0985,452.5827" stroke="#007F00" stroke-width="0.24" fill-opacity="0" />
  <path d="M289.3777,395.0678 L462.1223,463.6875" stroke="#007F00" stroke-width="0.24" fill-opacity="0" />
  <path d="M275.3378,405.0807 L449.8018,476.3275" stroke="#007F00" stroke-width="0.24" fill-opacity="0" />
  <path d="M486.3231,425.3668 L489.5024,430.7079" stroke="#000000" stroke-width="0.24" fill-opacity="0" />
  <path d="M483.4749,428.4774 L492.3296,427.574" stroke="#000000" stroke-width="0.24" fill-opacity="0" />
</svg>