<?xml version="1.0" encoding="UTF-8" standalone="no"?>
<!DOCTYPE svg PUBLIC "-//W3C//DTD SVG 1.1//EN" "http://www.w3.org/Graphics/SVG/1.1/DTD/svg11.dtd">
<svg width="100%" height="100%" viewBox="0 0 612 792" version="1.1" xmlns="http://www.w3.org/2000/svg">
  <path d="M244.9738,374.3191 L302.6146,397.0849" stroke="#007F00" stroke-width="0.24" fill-opacity="0" />
  <path d="M266.9111,390.064 L279.3856,380.946" stroke="#007F00" stroke-width="0.24" fill-opacity="0" />
  <path d="M251.2623,369.9779 L238.5828,378.7312" stroke="#007F00" stroke-width="0.24" fill-opacity="0" />
  <path d="M308.6834,392.372 L251.2623,369.9779" stroke="#007F00" stroke-width="0.24" fill-opacity="0" />
  <path d="M296.4425,401.8781 L308.6834,392.372" stroke="#007F00" stroke-width="0.24" fill-opacity="0" />
  <path d="M238.5828,378.7312 L296.4425,401.8781" stroke="#007F00" stroke-width="0.24" fill-opacity="0" />
  <path d="M398.1201,374.6649 L394.4692,377.8 L407.0736,382.317 L410.6813,379.1298 z" stroke="#C32323" stroke-width="0.24" fill-opacity="0" />
  <path d="M402.1772,371.1809 L398.3468,374.4702 L410.9054,378.9318 L414.6902,375.5882 z" stroke="#C32323" stroke-width="0.24" fill-opacity="0" />
  <path d="M237.408,325.3004 L230.8858,329.3556 L239.1911,332.3944 L245.6846,328.2895 z" stroke="#C32323" stroke-width="0.24" fill-opacity="0" />
  <path d="M226.6548,331.9862 L219.9533,336.1529 L228.3096,339.2775 L234.9828,335.059 z" stroke="#C32323" stroke-width="0.24" fill-opacity="0" />
  <path d="M216.1512,338.5169 L209.2721,342.7939 L217.6723,346.0019 L224.5233,341.671 z" stroke="#C32323" stroke-width="0.24" fill-opacity="0" />
  <path d="M293.123,356.5111 L286.6721,361.0999 L295.8817,364.5435 L302.2936,359.8948 z" stroke="#C32323" stroke-width="0.24" fill-opacity="0" />
  <path d="M401.9807,374.66 L404.719,375.6308 L406.1765,375.3223 L406.6809,376.3264 L409.0418,377.1634 L407.519,374.1531 z" stroke="#C32323" stroke-width="0.24" fill-opacity="0" />
  <path d="M400.1718,376.223 L402.9147,377.1994 L403.0214,378.0702 L404.8799,377.899 L407.2449,378.7409 L401.6593,379.2564 z" stroke="#C32323" stroke-width="0.24" fill-opacity="0" />
  <path d="M251.2623,369.9779 L238.5828,378.7312 L296.4425,401.8781 L308.6834,392.372 z" stroke="#C32323" stroke-width="0.24" fill-opacity="0" />
  <path d="M310.846,392.903 L298.6301,402.4273 L361.7829,427.6772 L373.4279,417.2961 z" stroke="#C32323" stroke-width="0.24" fill-opacity="0" />
  <path d="M371.1723,343.0388 L362.3692,349.8643 L422.0089,370.5776 L430.3405,363.1972 z" stroke="#C32323" stroke-width="0.24" fill-opacity="0" />
  <path d="M412.6993,362.6077 L409.2129,365.6042 L421.6573,369.9219 L425.1012,366.8767 z" stroke="#C32323" stroke-width="0.24" fill-opacity="0" />
  <path d="M416.5748,359.2768 L412.9159,362.4215 L425.3152,366.6876 L428.9291,363.492 z" stroke="#C32323" stroke-width="0.24" fill-opacity="0" />
  <path d="M416.4738,362.603 L419.1763,363.5309 L420.5933,363.2361 L421.1125,364.1958 L423.4424,364.9958 L421.8755,362.1184 z" stroke="#C32323" stroke-width="0.24" fill-opacity="0" />
  <path d="M414.7462,364.097 L417.4534,365.0302 L417.5804,365.8624 L419.3929,365.6988 L421.7267,366.5034 L416.28,366.9959 z" stroke="#C32323" stroke-width="0.24" fill-opacity="0" />
  <path d="M384.481,332.7198 L376.0362,339.2675 L434.9402,359.1227 L442.9197,352.0542 z" stroke="#C32323" stroke-width="0.24" fill-opacity="0" />
  <path d="M425.6356,351.4893 L422.2974,354.3583 L434.5806,358.4947 L437.8769,355.58 z" stroke="#C32323" stroke-width="0.24" fill-opacity="0" />
  <path d="M429.3504,348.2964 L425.8459,351.3084 L438.0846,355.3963 L441.5448,352.3367 z" stroke="#C32323" stroke-width="0.24" fill-opacity="0" />
  <path d="M429.3334,351.4823 L432.0011,352.3716 L433.3813,352.0891 L433.9122,353.0088 L436.2117,353.7754 L434.6101,351.0179 z" stroke="#C32323" stroke-width="0.24" fill-opacity="0" />
  <path d="M427.6778,352.914 L430.35,353.8083 L430.4942,354.6057 L432.2644,354.449 L434.5678,355.2198 L429.2482,355.6918 z" stroke="#C32323" stroke-width="0.24" fill-opacity="0" />
  <path d="M398.0871,322.1702 L389.995,328.4444 L448.1256,347.4427 L455.7591,340.6806 z" stroke="#C32323" stroke-width="0.24" fill-opacity="0" />
  <path d="M438.8402,340.1402 L435.6445,342.8868 L447.7586,346.8422 L450.9131,344.0529 z" stroke="#C32323" stroke-width="0.24" fill-opacity="0" />
  <path d="M442.3944,337.0854 L439.0388,339.9695 L451.1092,343.8795 L454.4213,340.9509 z" stroke="#C32323" stroke-width="0.24" fill-opacity="0" />
  <path d="M442.4541,340.1358 L445.0853,340.9866 L446.4283,340.7162 L446.9701,341.596 L449.2379,342.3293 L447.6038,339.6916 z" stroke="#C32323" stroke-width="0.24" fill-opacity="0" />
  <path d="M440.8704,341.5054 L443.506,342.3607 L443.6667,343.1234 L445.394,342.9735 L447.6657,343.7108 L442.4752,344.1621 z" stroke="#C32323" stroke-width="0.24" fill-opacity="0" />
  <path d="M410.0367,312.1497 L402.2657,318.1654 L459.5992,336.3663 L466.92,329.893 z" stroke="#C32323" stroke-width="0.24" fill-opacity="0" />
  <path d="M450.354,329.3769 L447.2902,332.0056 L459.227,335.7915 L462.2505,333.1229 z" stroke="#C32323" stroke-width="0.24" fill-opacity="0" />
  <path d="M453.7651,326.4502 L450.5471,329.2112 L462.441,332.9547 L465.6165,330.1519 z" stroke="#C32323" stroke-width="0.24" fill-opacity="0" />
  <path d="M453.8936,329.3705 L456.4875,330.1855 L457.7959,329.9266 L458.3456,330.7693 L460.581,331.4716 L458.924,328.945 z" stroke="#C32323" stroke-width="0.24" fill-opacity="0" />
  <path d="M452.3738,330.6825 L454.9722,331.5017 L455.1462,332.2321 L456.8333,332.0886 L459.0726,332.7946 L454.0031,333.2268 z" stroke="#C32323" stroke-width="0.24" fill-opacity="0" />
  <path d="M367.9524,286.8727 L360.096,292.2661 L412.7637,308.5417 L420.2544,302.7611 z" stroke="#C32323" stroke-width="0.24" fill-opacity="0" />
  <path d="M356.2334,354.2109 L347.03,361.3412 L407.4151,383.0033 L416.142,375.2798 z" stroke="#C32323" stroke-width="0.24" fill-opacity="0" />
  <path d="M249.2669,321.0116 L348.2599,356.6761" stroke="#C32323" stroke-width="0.24" fill-opacity="0" />
  <path d="M254.6335,377.9783 L292.5619,392.9542" stroke="#C32323" stroke-width="0.24" fill-opacity="0" />
  <path d="M326.0566,406.5035 L345.1797,414.0585" stroke="#C32323" stroke-width="0.24" fill-opacity="0" />
  <path d="M248.3262,332.0762 L290.0386,347.2266" stroke="#C32323" stroke-width="0.24" fill-opacity="0" />
  <path d="M237.3073,339.1189 L279.2876,354.7071" stroke="#C32323" stroke-width="0.24" fill-opacity="0" />
  <path d="M225.871,346.0461 L268.0916,362.0731" stroke="#C32323" stroke-width="0.24" fill-opacity="0" />
  <path d="M303.5648,364.0039 L349.8314,381.193" stroke="#C32323" stroke-width="0.24" fill-opacity="0" />
  <path d="M265.4246,311.2057 L363.4399,345.3991" stroke="#C32323" stroke-width="0.24" fill-opacity="0" />
  <path d="M279.9314,302.1228 L376.9692,334.983" stroke="#C32323" stroke-width="0.24" fill-opacity="0" />
  <path d="M294.7943,292.817 L390.7925,324.3407" stroke="#C32323" stroke-width="0.24" fill-opacity="0" />
  <path d="M308.0367,283.9519 L402.9471,314.2297" stroke="#C32323" stroke-width="0.24" fill-opacity="0" />
  <path d="M321.6201,276.2619 L360.5115,288.1696" stroke="#C32323" stroke-width="0.24" fill-opacity="0" />
</svg>