<?xml version="1.0" encoding="UTF-8" standalone="no"?>
<!DOCTYPE svg PUBLIC "-//W3C//DTD SVG 1.1//EN" "http://www.w3.org/Graphics/SVG/1.1/DTD/svg11.dtd">
<svg width="100%" height="100%" viewBox="0 0 612 792" version="1.1" xmlns="http://www.w3.org/2000/svg">
  <path d="M315.3524,314.612 L174.5302,409.6316" stroke="#007F00" stroke-width="0.24" fill-opacity="0" />
  <path d="M493.4372,374.1206 L315.3524,314.612" stroke="#007F00" stroke-width="0.24" fill-opacity="0" />
  <path d="M371.7548,497.1178 L493.4372,374.1206" stroke="#007F00" stroke-width="0.24" fill-opacity="0" />
  <path d="M174.5302,409.6316 L371.7548,497.1178" stroke="#007F00" stroke-width="0.24" fill-opacity="0" />
  <path d="M315.3524,314.612 L174.5302,409.6316 L371.7548,497.1178 L493.4372,374.1206 z" stroke="#000000" stroke-width="0.24" fill-opacity="0" />
  <path d="M368.5566,332.3907 L232.435,435.3173" stroke="#007F00" stroke-width="0.24" fill-opacity="0" />
  <path d="M199.6968,392.6549 L393.9429,474.6899" stroke="#007F00" stroke-width="0.24" fill-opacity="0" />
  <path d="M230.0832,371.5041 L420.2193,447.0309" stroke="#007F00" stroke-width="0.24" fill-opacity="0" />
  <path d="M421.8857,350.211 L291.3335,461.4486" stroke="#007F00" stroke-width="0.24" fill-opacity="0" />
  <path d="M260.3623,351.7206 L446.6326,421.4309" stroke="#007F00" stroke-width="0.24" fill-opacity="0" />
  <path d="M273.8093,342.0352 L457.9145,408.9966" stroke="#007F00" stroke-width="0.24" fill-opacity="0" />
  <path d="M288.5643,332.6912 L470.7472,397.0558" stroke="#007F00" stroke-width="0.24" fill-opacity="0" />
  <path d="M300.7624,324.4605 L481.1039,386.5872" stroke="#007F00" stroke-width="0.24" fill-opacity="0" />
  <path d="M245.3336,361.8613 L433.6844,434.519" stroke="#007F00" stroke-width="0.24" fill-opacity="0" />
</svg>